<?xml version="1.0" ?><svg height="52px" version="1.1" viewBox="0 0 52 52" width="52px" xmlns="http://www.w3.org/2000/svg" xmlns:sketch="http://www.bohemiancoding.com/sketch/ns" xmlns:xlink="http://www.w3.org/1999/xlink"><title/><description/><defs/><g fill="none" fill-rule="evenodd" id="black" stroke="none" stroke-width="1"><g fill="#262626" id="color" transform="translate(-210.000000, -420.000000)"><circle cx="236" cy="446" d="M236,472 C250.359404,472 262,460.359404 262,446 C262,431.640596 250.359404,420 236,420 C221.640596,420 210,431.640596 210,446 C210,460.359404 221.640596,472 236,472 Z M236,472" id="githug" r="26"/></g><g fill="#FFFFFF" id="Icon" transform="translate(-200.000000, -409.000000)"><path d="M222.035237,450.181304 C222.035237,449.79155 222.021486,448.760264 222.013628,447.390586 C217.563154,448.381588 216.624144,445.191046 216.624144,445.191046 C215.896314,443.295655 214.847294,442.79109 214.847294,442.79109 C213.394579,441.772896 214.957304,441.794046 214.957304,441.794046 C216.563246,441.909864 217.407962,443.484992 217.407962,443.484992 C218.835139,445.991703 221.152215,445.268594 222.064704,444.848627 C222.210074,443.788134 222.623592,443.065025 223.080328,442.655129 C219.52761,442.241205 215.792197,440.833257 215.792197,434.546842 C215.792197,432.756191 216.415912,431.291845 217.439393,430.14474 C217.275361,429.729809 216.725314,428.062025 217.59655,425.803065 C217.59655,425.803065 218.940238,425.361949 221.995948,427.484948 C223.271862,427.12138 224.641088,426.938085 226.002456,426.932042 C227.360877,426.938085 228.72912,427.12138 230.007981,427.484948 C233.061727,425.361949 234.40345,425.803065 234.40345,425.803065 C235.276651,428.061018 234.727585,429.728802 234.562571,430.14474 C235.588017,431.291845 236.20682,432.756191 236.20682,434.546842 C236.20682,440.849371 232.465515,442.236169 228.90101,442.642037 C229.476595,443.148616 229.987354,444.149689 229.987354,445.680504 C229.987354,447.874002 229.966727,449.643504 229.966727,450.181304 C229.966727,450.620406 230.255502,451.130006 231.067804,450.969875 C237.419872,448.79652 242,442.651101 242,435.405912 C242,426.344893 234.83563,419 225.999509,419 C217.16437,419 210,426.344893 210,435.405912 C210.000982,442.653115 214.585039,448.802562 220.943,450.971889 C221.742534,451.121949 222.035237,450.61537 222.035237,450.181304 Z M222.035237,450.181304" id="github"/></g></g></svg>