<?xml version="1.0" ?><svg height="52px" version="1.1" viewBox="0 0 52 52" width="52px" xmlns="http://www.w3.org/2000/svg" xmlns:sketch="http://www.bohemiancoding.com/sketch/ns" xmlns:xlink="http://www.w3.org/1999/xlink"><title/><description/><defs/><g fill="none" fill-rule="evenodd" id="black" stroke="none" stroke-width="1"><g fill="#346DA6" id="color" transform="translate(-350.000000, 0.000000)"><circle cx="376" cy="26" d="M376,52 C390.359404,52 402,40.3594042 402,26 C402,11.6405958 390.359404,0 376,0 C361.640596,0 350,11.6405958 350,26 C350,40.3594042 361.640596,52 376,52 Z M376,52" id="Linkedin" r="26"/></g><g fill="#FFFFFF" id="Icon" transform="translate(-340.000000, 11.000000)"><path d="M358.965332,26.9800644 L358.965332,11.1210938 L354.063721,11.1210938 L354.063721,26.9800644 L358.965332,26.9800644 Z M358.965332,5.49978594 C358.936136,4.08057197 357.99028,3 356.453714,3 C354.916747,3 353.9125,4.08057197 353.9125,5.49978594 C353.9125,6.88817536 354.887552,8 356.394923,8 L356.424118,8 C357.99028,8 358.965332,6.88817536 358.965332,5.49978594 Z M366.962036,26.9800648 L366.962036,17.9443898 C366.962036,17.4608146 366.996988,16.9772394 367.139188,16.6325125 C367.527963,15.6658408 368.412762,14.6651752 369.898439,14.6651752 C371.84471,14.6651752 373.065308,15.7697375 373.065308,17.9443897 L373.065308,26.9800647 L378,26.9800648 L378,17.7026022 C378,12.7327894 375.347039,10.4202465 371.808322,10.4202465 C368.90687,10.4202465 367.633296,12.042378 366.926127,13.1464617 L366.961557,11.0253906 L362.0354,11.0253906 C362.106261,12.5436253 362.0354,26.9800647 362.0354,26.9800647 L366.962036,26.9800648 Z M366.962036,26.9800648" id="linkedin"/></g></g></svg>